<?xml version="1.0" standalone="no"?>
<!DOCTYPE svg PUBLIC "-//W3C//DTD SVG 20010904//EN"
 "http://www.w3.org/TR/2001/REC-SVG-20010904/DTD/svg10.dtd">
<svg version="1.0" xmlns="http://www.w3.org/2000/svg"
 width="2160.000000pt" height="2800.000000pt" viewBox="0 0 2160.000000 2800.000000"
 preserveAspectRatio="xMidYMid meet">

<g transform="translate(0.000000,2800.000000) scale(0.100000,-0.100000)"
fill="#000000" stroke="none">
<path d="M0 14000 l0 -14000 10800 0 10800 0 0 14000 0 14000 -10800 0 -10800
0 0 -14000z m20255 13850 c14 -6 4 -9 -38 -9 -36 -1 -56 3 -52 9 7 12 62 12
90 0z m297 -142 c20 -9 28 -18 24 -30 -2 -11 1 -18 10 -18 13 0 36 -33 40 -59
2 -8 8 -17 14 -21 17 -11 8 -44 -13 -48 -11 -2 -17 3 -17 16 0 11 -6 22 -13
25 -7 2 -21 22 -32 43 -11 21 -30 54 -42 72 -13 19 -23 44 -22 56 0 21 1 21
11 -1 6 -13 24 -28 40 -35z m-16384 -1412 c6 -3 22 -2 36 4 15 5 46 7 71 3 55
-7 52 4 60 -263 3 -107 8 -202 10 -210 3 -8 0 -22 -5 -30 -8 -12 -43 -15 -212
-15 -112 0 -216 3 -233 6 -16 4 -22 7 -12 8 9 1 17 9 17 19 0 9 9 23 20 30 16
9 20 23 20 61 0 28 5 53 10 56 12 8 13 45 1 45 -4 0 -11 42 -16 93 -12 151
-13 177 -5 182 5 3 34 7 66 10 32 3 59 7 61 9 6 6 99 -1 111 -8z m-309 -450
c2 -73 -5 -52 -12 34 -3 44 -2 63 3 45 4 -16 8 -52 9 -79z m-564 -393 c12 -11
15 -25 11 -46 -3 -16 -6 -65 -6 -108 l0 -79 -76 0 c-67 0 -75 2 -64 15 7 8 28
15 46 15 31 0 34 3 34 29 0 16 7 34 15 41 8 7 15 19 15 27 0 23 -75 93 -98 93
-24 0 -38 16 -20 23 7 3 39 6 70 6 40 1 61 -4 73 -16z m1863 -308 c-7 -7 -628
-8 -635 -1 -4 3 139 6 317 6 178 0 321 -2 318 -5z m52 -44 c0 -28 -4 -53 -10
-56 -6 -4 -10 15 -10 49 0 31 5 56 10 56 6 0 10 -22 10 -49z m-720 18 c0 -7
-45 -9 -135 -7 -74 2 -135 0 -135 -4 0 -5 -4 -8 -10 -8 -5 0 -10 7 -10 15 0
13 23 15 145 15 95 0 145 -4 145 -11z m-2617 -141 c-3 -46 -7 -85 -9 -87 -2
-2 -4 35 -4 82 0 48 4 87 9 87 5 0 7 -36 4 -82z m3135 61 c2 -5 10 -9 18 -9 8
0 15 -4 15 -10 1 -5 2 -13 3 -17 0 -5 12 -26 25 -48 22 -38 24 -39 32 -17 5
12 13 22 18 22 26 0 33 -45 27 -175 -5 -109 -3 -134 8 -138 15 -6 11 -43 -4
-52 -12 -7 -40 5 -40 17 0 10 -101 219 -110 228 -3 3 -11 17 -19 32 -13 24
-61 67 -61 54 0 -3 10 -22 22 -43 41 -73 59 -115 56 -131 -3 -12 -9 -7 -22 18
-11 19 -22 37 -26 40 -3 3 -23 32 -43 65 -35 57 -50 125 -28 125 5 0 14 14 21
31 13 30 15 31 59 24 25 -4 48 -11 49 -16z m-3198 -55 l0 -36 -30 30 c-16 17
-30 32 -30 35 0 2 14 4 30 5 28 1 30 -2 30 -34z m3389 -58 c-9 -8 -10 -7 -5 7
3 10 7 26 7 35 1 9 4 6 6 -7 3 -13 -1 -28 -8 -35z m-959 -3 c0 -19 -3 -24 -10
-17 -6 6 -8 18 -4 27 9 24 14 21 14 -10z m-3 -75 c-3 -7 -5 -2 -5 12 0 14 2
19 5 13 2 -7 2 -19 0 -25z m50 -55 c-3 -10 -5 -4 -5 12 0 17 2 24 5 18 2 -7 2
-21 0 -30z m-798 -63 c6 -18 11 -153 12 -336 0 -174 7 -354 14 -417 14 -124 9
-153 -28 -143 -12 3 -31 6 -42 7 l-20 0 20 9 c18 8 17 9 -6 9 -15 1 -32 -5
-38 -12 -8 -10 -37 -13 -113 -11 -57 1 -139 -4 -183 -12 -80 -14 -222 -29
-347 -38 -65 -5 -68 -4 -68 17 0 38 -14 51 -40 37 -12 -6 -23 -10 -25 -8 -5 6
-25 274 -30 423 -3 83 -10 175 -15 205 -5 30 -10 100 -11 155 l-2 100 104 7
c57 4 176 10 264 13 88 4 164 11 170 16 5 5 91 9 191 9 l182 0 11 -30z m1367
-7 c13 -30 35 -106 43 -149 6 -36 5 -41 -10 -37 -18 5 -44 77 -55 156 -6 47 6
65 22 30z m144 -113 c17 -30 33 -62 36 -70 3 -8 23 -23 45 -32 45 -19 60 -48
62 -126 2 -41 -2 -57 -15 -66 -10 -7 -26 -33 -37 -58 -11 -25 -29 -52 -40 -60
-12 -8 -18 -18 -14 -21 3 -4 -3 -7 -15 -7 -11 0 -27 -2 -34 -5 -8 -3 -28 8
-45 24 -39 37 -110 141 -118 172 -6 25 19 99 34 99 15 0 39 -35 76 -113 27
-57 42 -77 54 -75 21 4 23 72 5 150 -8 31 -13 61 -12 65 1 4 -2 17 -8 28 -6
11 -17 47 -24 80 -7 33 -17 64 -22 70 -4 5 -8 18 -8 29 0 19 1 19 24 -4 14
-14 39 -50 56 -80z m-646 37 c20 -15 13 -44 -12 -49 -24 -6 -62 21 -62 43 0
23 46 26 74 6z m23 -89 c-3 -8 -6 -5 -6 6 -1 11 2 17 5 13 3 -3 4 -12 1 -19z
m340 -264 c-4 -4 -14 1 -22 12 -22 29 -18 41 7 17 12 -13 19 -26 15 -29z
m-477 -104 c0 -27 -4 -50 -10 -50 -5 0 -10 23 -10 50 0 28 5 50 10 50 6 0 10
-22 10 -50z m877 -16 c-3 -3 -12 -4 -19 -1 -8 3 -5 6 6 6 11 1 17 -2 13 -5z
m93 -4 c0 -6 -11 -8 -27 -4 -40 10 -41 14 -5 14 18 0 32 -5 32 -10z m-920 -26
c0 -2 -9 -4 -21 -4 -11 0 -18 4 -14 10 5 8 35 3 35 -6z m535 6 c4 -6 -5 -10
-19 -10 -14 0 -26 5 -26 10 0 6 9 10 19 10 11 0 23 -4 26 -10z m-1012 -596 c3
-4 -5 -15 -18 -26 -14 -11 -25 -28 -25 -38 0 -10 -4 -22 -10 -25 -6 -4 -10 13
-10 44 0 49 1 51 28 51 16 0 32 -3 35 -6z m300 -41 c6 -34 11 -40 27 -36 18 5
20 0 20 -46 0 -38 -5 -55 -19 -68 -17 -14 -19 -27 -15 -112 l3 -96 -13 55 c-8
30 -14 46 -15 35 0 -11 -9 -32 -18 -45 -13 -19 -17 -41 -14 -92 2 -49 -2 -73
-13 -90 -9 -12 -16 -31 -16 -40 0 -10 -12 -24 -26 -30 -22 -10 -28 -10 -39 5
-17 24 -25 148 -15 242 5 44 9 122 9 173 1 79 4 95 22 113 11 11 19 22 17 23
-1 1 -16 10 -31 19 -15 10 -25 22 -22 27 3 4 38 7 77 6 l73 -2 8 -41z m14
-500 c-3 -10 -5 -4 -5 12 0 17 2 24 5 18 2 -7 2 -21 0 -30z m2497 -6417 c8
-19 21 -38 29 -42 9 -6 20 -39 27 -84 10 -64 52 -170 98 -250 32 -55 42 -88
42 -132 0 -62 -26 -140 -60 -178 -26 -29 -127 -70 -230 -95 -30 -7 -68 -18
-85 -25 -31 -13 -171 -39 -237 -44 -28 -2 -35 1 -30 12 4 12 0 14 -21 8 -20
-5 -30 -1 -46 20 -12 15 -21 31 -21 37 0 12 -63 174 -92 237 -33 72 -57 149
-60 191 -2 21 -7 39 -12 39 -5 0 -3 7 4 15 9 11 10 19 1 28 -11 14 6 77 21 77
4 0 8 7 8 15 0 8 5 15 11 15 7 0 20 9 30 21 10 11 37 25 61 31 88 20 94 22
118 31 8 3 33 9 55 13 47 9 42 7 80 23 16 7 59 19 95 26 36 8 88 21 115 29 75
21 83 20 99 -18z m2318 -279 c0 -12 1 -28 1 -35 -1 -7 5 -11 13 -8 8 3 14 -1
14 -10 0 -9 6 -14 12 -12 20 7 37 -38 34 -87 -1 -24 1 -46 4 -47 4 -2 11 -13
14 -25 6 -18 3 -23 -10 -23 -13 0 -15 -6 -11 -28 4 -21 1 -31 -14 -40 -10 -7
-19 -21 -19 -31 0 -11 -9 -21 -21 -24 -24 -7 -16 -29 9 -25 10 2 17 -4 17 -12
0 -8 -7 -15 -15 -15 -8 -1 -24 -6 -35 -13 -16 -9 -17 -13 -6 -21 22 -14 4 -49
-29 -56 -17 -4 -30 -10 -30 -13 0 -7 -73 -42 -86 -42 -3 0 -24 -13 -47 -29
-23 -15 -53 -32 -67 -36 -14 -4 -27 -10 -30 -14 -8 -10 -63 -42 -82 -48 -10
-3 -18 -9 -18 -14 0 -5 -7 -9 -15 -9 -8 0 -15 -4 -15 -10 0 -5 -7 -10 -15 -10
-8 0 -15 -5 -15 -11 0 -6 -8 -9 -17 -7 -9 2 -31 -12 -48 -29 -18 -18 -36 -33
-41 -33 -5 0 -22 -12 -39 -26 -61 -51 -72 -59 -106 -76 -46 -23 -94 -34 -85
-20 7 12 -31 42 -55 42 -10 0 -15 8 -15 23 1 17 -4 21 -21 19 -17 -2 -21 1
-17 12 3 9 10 14 14 11 15 -10 20 12 9 43 -6 17 -17 33 -25 36 -9 3 -12 11 -8
17 4 7 -1 19 -12 27 -15 12 -16 14 -2 9 14 -5 16 -2 9 16 -5 12 -18 23 -30 25
-11 2 -21 6 -21 8 0 9 55 53 66 54 6 0 18 7 25 17 11 13 11 17 2 20 -7 3 -13
9 -13 14 0 6 5 7 10 4 6 -4 10 8 10 29 0 20 5 36 10 36 6 0 18 8 28 18 10 9
30 26 44 36 14 11 24 24 22 31 -3 6 4 19 15 29 13 12 19 13 17 4 0 -7 4 -13 9
-13 6 0 9 5 9 12 -1 6 12 24 28 40 25 23 31 25 39 13 9 -13 10 -12 6 2 -7 20
37 52 60 44 9 -4 13 -1 10 6 -5 16 138 109 157 102 8 -3 17 2 20 13 7 22 73
66 89 60 7 -2 18 3 25 12 12 14 13 14 8 -1 -3 -10 -1 -18 4 -18 6 0 10 5 10
11 0 6 7 9 15 5 11 -4 15 2 15 20 0 17 8 27 24 34 13 5 27 14 31 19 3 6 14 11
23 11 9 1 34 9 56 19 34 16 41 17 67 4 17 -9 30 -23 31 -36z m622 -399 c11
-10 16 -18 12 -18 -4 0 0 -10 8 -22 9 -12 16 -35 16 -51 0 -24 3 -27 14 -18
11 9 15 8 21 -6 11 -30 18 -104 9 -101 -15 4 -57 -24 -96 -64 -21 -22 -38 -36
-38 -33 0 4 -6 3 -13 -3 -7 -6 -32 -14 -56 -18 -23 -4 -38 -10 -33 -13 6 -3
13 -18 17 -32 5 -22 1 -30 -26 -50 -18 -12 -29 -16 -24 -8 6 11 5 12 -6 2 -7
-7 -29 -13 -49 -13 -20 0 -41 -5 -47 -11 -12 -12 -83 -2 -83 13 0 6 -6 8 -12
6 -15 -5 -51 29 -39 36 5 3 6 17 3 31 -2 14 0 25 6 25 15 0 10 38 -5 44 -15 6
-18 26 -3 26 5 0 20 11 34 25 14 14 34 25 46 25 23 0 24 4 10 31 -8 13 -7 19
0 19 6 0 17 15 25 33 19 42 39 67 54 67 8 0 10 8 6 20 -4 12 -2 20 5 20 7 0 9
8 5 19 -5 15 1 21 32 28 21 6 72 10 113 9 58 0 79 -4 94 -18z m-364 -208 c0
-5 -2 -10 -4 -10 -3 0 -8 5 -11 10 -3 6 -1 10 4 10 6 0 11 -4 11 -10z m-1155
-200 c3 -5 1 -10 -4 -10 -6 0 -11 5 -11 10 0 6 2 10 4 10 3 0 8 -4 11 -10z
m85 -151 c0 -5 -4 -9 -10 -9 -5 0 -10 7 -10 16 0 8 5 12 10 9 6 -3 10 -10 10
-16z m4900 -650 c49 -84 112 -184 134 -214 16 -22 15 -23 92 34 26 19 44 30
41 23 -4 -6 19 2 50 18 75 38 95 39 62 3 -30 -33 -27 -76 6 -81 45 -7 49 -11
29 -34 -19 -21 -19 -21 9 -14 15 3 27 3 27 -1 0 -5 -39 -35 -86 -68 -127 -89
-129 -92 -94 -122 11 -10 20 -25 20 -35 0 -28 43 -108 58 -108 7 0 10 -4 7
-10 -3 -5 0 -19 8 -30 l14 -21 6 21 c3 11 13 20 24 20 22 0 123 66 123 81 0 6
4 8 9 5 5 -4 31 3 58 15 65 28 104 40 115 33 5 -3 -9 -16 -32 -28 -64 -34 -90
-105 -32 -90 24 7 30 24 8 24 -8 0 -13 7 -12 15 3 19 6 21 39 29 31 7 37 -9
10 -30 -16 -11 -16 -13 10 -19 33 -9 35 -32 3 -45 -26 -9 -44 -30 -27 -30 5 0
13 5 16 10 3 6 16 10 28 10 29 0 14 -13 -58 -49 -33 -16 -86 -50 -117 -75 -49
-39 -57 -50 -55 -76 1 -16 7 -30 12 -31 13 0 75 -85 75 -102 0 -7 7 -23 16
-35 20 -29 12 -39 -20 -24 -30 13 -46 -1 -46 -40 0 -22 -5 -28 -22 -28 -12 0
-30 8 -40 17 -17 15 -21 15 -29 3 -8 -12 -15 -9 -39 18 -39 42 -39 64 0 27 39
-37 38 -30 -6 44 -39 65 -61 80 -49 34 5 -23 4 -26 -6 -15 -21 20 -36 14 -71
-24 -35 -38 -141 -124 -154 -124 -4 0 5 14 22 32 33 35 20 30 -48 -19 -27 -19
-48 -40 -48 -47 0 -6 20 -43 45 -81 25 -39 45 -76 45 -82 0 -7 16 -43 35 -79
47 -88 41 -97 -14 -24 -16 21 -21 22 -35 11 -10 -8 -26 -11 -42 -7 -14 4 -24
3 -22 -1 2 -4 10 -20 17 -36 24 -47 1 -44 -45 8 -25 28 -40 40 -35 28 36 -73
-18 -28 -78 65 -18 29 -39 52 -47 52 -8 0 -13 3 -11 8 5 15 -19 8 -51 -16 -38
-29 -52 -23 -28 12 22 34 20 41 -7 23 -20 -13 -24 -13 -36 0 -12 13 -11 14 6
9 13 -4 23 -2 26 8 7 18 -30 28 -55 15 -17 -9 -18 -8 -9 9 5 10 17 25 26 32 8
7 22 27 31 45 14 31 14 34 -14 81 -15 27 -35 65 -43 84 -8 19 -34 70 -58 113
l-43 78 -25 -16 c-33 -22 -42 -11 -15 18 l21 22 -31 29 c-27 25 -33 27 -43 13
-6 -9 -16 -12 -24 -8 -9 6 -2 18 23 43 44 44 45 62 7 119 -28 41 -32 82 -5 44
23 -31 26 -9 4 29 -11 20 -20 42 -20 49 1 17 60 -50 60 -68 0 -17 16 -20 25
-4 4 5 1 18 -7 27 -26 33 -36 59 -28 72 7 11 11 11 24 1 8 -7 19 -10 24 -7 6
3 27 -19 48 -49 20 -30 39 -55 42 -55 3 0 28 17 56 37 28 20 56 36 63 36 7 0
13 4 13 8 0 4 39 31 86 60 74 46 85 56 81 76 -4 22 -3 22 13 8 9 -8 19 -13 22
-10 6 6 -45 112 -62 129 -6 6 -10 18 -10 28 0 10 -5 18 -10 18 -6 0 -30 40
-54 90 -36 72 -41 88 -25 79 11 -5 27 -26 36 -45 18 -37 49 -48 40 -14 -3 11
-1 18 4 14 5 -3 9 0 9 6 0 7 7 10 15 6 21 -8 19 5 -10 62 -51 102 -16 71 55
-49z m-612 -324 c-3 -3 -9 2 -12 12 -6 14 -5 15 5 6 7 -7 10 -15 7 -18z m128
-19 c3 -8 -4 -25 -15 -37 -13 -14 -19 -30 -15 -41 9 -29 -14 -21 -31 12 -19
36 -19 40 0 40 8 0 20 9 27 20 15 24 27 26 34 6z m45 -18 c11 -21 11 -22 -4
-9 -10 7 -17 17 -17 22 0 15 9 10 21 -13z m-296 -22 c18 -13 18 -16 2 -72 -20
-71 -19 -72 83 -103 99 -30 122 -42 111 -55 -5 -6 -11 -22 -13 -36 -3 -22 -7
-25 -43 -23 -37 3 -120 25 -156 43 -12 6 -20 0 -33 -26 -9 -19 -16 -39 -16
-45 0 -5 -8 -21 -17 -35 -17 -26 -17 -26 -25 -5 -6 17 -14 20 -34 17 -29 -6
-29 -4 -4 93 6 24 9 49 6 56 -2 6 -23 17 -47 25 -24 7 -49 17 -55 22 -6 5 -19
6 -28 2 -12 -5 -16 0 -16 23 0 51 20 67 74 60 25 -4 60 -14 76 -22 l29 -15 12
42 c16 63 53 84 94 54z m1714 -359 c53 -49 68 -146 30 -198 -31 -44 -75 -62
-149 -63 -54 -1 -71 3 -97 23 -51 38 -69 122 -39 179 23 43 82 83 134 91 53 8
86 -1 121 -32z m-506 -371 c4 -10 1 -13 -9 -9 -15 6 -19 23 -5 23 5 0 11 -7
14 -14z m7366 -75 c-11 -23 -26 -44 -34 -48 -8 -3 -15 -16 -15 -28 0 -13 -4
-27 -10 -30 -29 -18 13 88 53 132 28 32 30 24 6 -26z m299 -188 c-15 -35 -29
-55 -36 -49 -4 5 36 76 44 76 2 0 -2 -12 -8 -27z m-8104 -119 c3 -8 2 -12 -4
-9 -6 3 -10 10 -10 16 0 14 7 11 14 -7z m8040 -8 c-6 -16 -24 -23 -24 -8 0 10
22 33 27 28 2 -2 1 -11 -3 -20z m-13809 -26 c3 -5 21 -10 38 -10 18 0 39 -5
47 -10 12 -8 11 -10 -5 -8 -58 4 -165 -3 -165 -12 0 -5 8 -10 18 -10 10 0 24
-6 31 -12 10 -10 15 -10 18 -2 3 9 10 9 28 0 15 -6 23 -17 20 -25 -3 -8 1 -21
9 -30 20 -22 38 -71 26 -71 -6 0 -10 -5 -10 -11 0 -5 5 -7 10 -4 6 3 10 1 10
-4 0 -6 7 -11 15 -11 8 0 15 -4 15 -9 0 -5 9 -11 19 -14 15 -3 18 -11 14 -27
-3 -12 -12 -24 -19 -27 -8 -3 -14 -13 -15 -22 0 -13 -2 -13 -6 -1 -3 8 -13 24
-22 34 -9 11 -10 16 -3 12 16 -9 17 30 0 40 -7 4 -8 3 -4 -4 4 -7 2 -12 -3
-12 -14 0 -14 -67 -1 -75 12 -8 13 -52 1 -59 -5 -3 -7 -15 -4 -26 3 -12 -2
-29 -11 -39 -9 -10 -14 -20 -11 -23 3 -3 1 -18 -5 -33 -9 -24 -9 -26 4 -16 16
13 46 93 46 122 0 9 9 27 21 40 18 21 20 22 14 4 -4 -11 -9 -36 -12 -55 -4
-19 -15 -55 -25 -79 -10 -24 -16 -46 -13 -49 3 -3 5 0 5 6 0 7 7 12 15 12 8 0
27 12 42 28 31 30 31 29 32 250 1 105 9 135 26 95 12 -30 14 -224 3 -293 -12
-79 -71 -184 -137 -249 -25 -24 -39 -41 -31 -36 8 4 5 -2 -8 -14 -36 -35 -75
-53 -84 -38 -6 9 -8 9 -8 -1 0 -9 -7 -11 -21 -7 -15 5 -19 4 -14 -5 5 -8 -3
-9 -28 -5 -21 4 -37 3 -41 -4 -9 -14 -89 -14 -102 -1 -6 6 -34 13 -63 17 -36
4 -51 10 -47 18 2 7 -6 23 -20 36 -13 12 -24 19 -24 15 0 -5 -7 -3 -15 4 -9 7
-14 19 -11 26 3 7 -2 15 -11 18 -9 4 -13 13 -9 22 3 9 2 12 -5 9 -6 -4 -9 -1
-8 6 1 8 -3 27 -9 42 -7 16 -12 36 -12 45 0 15 2 15 10 2 14 -22 13 5 -1 32
-8 15 -8 19 0 14 7 -5 11 11 11 48 0 31 -4 56 -9 56 -5 0 -2 14 6 32 12 24 13
33 4 36 -14 5 12 51 36 65 7 5 11 13 7 18 -7 11 22 60 34 56 4 -1 7 1 7 4 0
15 40 49 52 45 7 -3 19 4 26 14 8 11 17 17 21 13 4 -4 4 0 0 10 -4 12 -1 17
10 17 9 0 18 -1 21 -2 2 -2 11 6 19 17 14 17 17 18 26 5 8 -13 10 -12 10 5 0
15 2 17 9 6 6 -9 14 -10 22 -5 8 5 16 9 19 10 3 0 16 5 30 11 24 10 117 40
132 42 4 1 10 -3 13 -9z m-508 -472 c-3 -8 -6 -5 -6 6 -1 11 2 17 5 13 3 -3 4
-12 1 -19z m-1064 -1160 c9 0 17 -5 17 -13 0 -7 6 -16 13 -18 9 -4 9 -8 -2
-15 -11 -8 -11 -11 1 -18 8 -5 22 -33 31 -63 33 -103 19 -108 -40 -12 -24 38
-43 74 -43 79 0 6 -12 25 -27 43 l-28 32 30 -8 c17 -4 38 -7 48 -7z m-201 -98
c14 -33 25 -60 23 -60 -6 0 -65 100 -65 110 0 26 18 4 42 -50z m-133 -37 c82
-138 183 -253 222 -253 22 0 24 4 23 45 -1 25 -6 50 -11 57 -5 7 -13 20 -17
28 -4 8 5 -1 21 -20 49 -62 149 -160 164 -160 9 0 10 3 4 8 -6 4 -25 27 -44
52 -31 42 -29 41 18 -10 28 -30 51 -63 51 -73 0 -10 4 -16 9 -12 14 8 19 -5
27 -61 3 -27 11 -52 16 -55 6 -4 8 -11 5 -15 -3 -5 -2 -28 2 -50 5 -27 4 -41
-3 -42 -29 -2 -88 -21 -100 -31 -7 -6 -20 -9 -28 -6 -8 3 -30 -1 -49 -9 -18
-8 -54 -17 -79 -21 l-45 -6 -35 67 c-45 88 -46 88 -26 81 10 -4 16 -1 16 8 0
14 -11 19 -37 16 -7 -1 -17 8 -23 19 -8 15 -8 20 1 20 8 0 6 7 -4 18 -23 26
-21 35 7 30 19 -4 11 7 -38 56 -59 57 -136 176 -136 207 1 8 7 -1 15 -20 43
-97 157 -231 199 -231 8 0 17 -13 21 -30 8 -35 16 -37 32 -11 10 16 9 22 -3
32 -11 9 -14 22 -10 42 4 21 -1 37 -18 60 -49 68 -45 67 41 -3 7 -6 16 -10 20
-10 4 0 -20 28 -53 63 -81 82 -218 277 -196 277 4 0 23 -26 41 -57z m-48 11
c22 -36 22 -37 3 -51 -58 -42 -74 -57 -74 -69 0 -7 16 -42 35 -78 l35 -66 -28
0 c-16 0 -32 8 -39 19 -26 42 -123 -7 -123 -62 0 -28 -10 -16 -16 19 -6 35
-11 41 -24 28 -23 -23 -19 -99 8 -195 28 -94 28 -95 7 -97 -18 -1 -22 7 -33
66 -6 37 -17 93 -23 125 -8 42 -8 62 0 70 7 7 7 14 0 23 -11 14 13 44 37 44 9
0 14 11 14 29 l0 30 -35 -15 c-19 -7 -38 -14 -43 -14 -4 0 -16 32 -25 72 -19
77 -15 88 31 88 12 0 57 11 100 24 96 30 144 44 159 45 6 1 21 -15 34 -35z
m86 -359 c9 -24 -1 -27 -15 -5 -8 13 -8 20 -2 20 6 0 13 -7 17 -15z m-267
-236 c0 -11 -4 -17 -10 -14 -5 3 -10 13 -10 21 0 8 5 14 10 14 6 0 10 -9 10
-21z m9146 -686 c-6 -63 -26 -135 -49 -179 -26 -51 -108 -125 -164 -151 -64
-28 -82 -24 -29 8 42 24 47 33 11 19 -14 -5 -25 -7 -25 -4 0 13 -59 -32 -64
-49 -3 -11 -9 -16 -16 -12 -9 6 -9 9 0 15 7 4 9 13 6 19 -4 6 -3 11 2 11 5 0
31 29 57 65 50 68 65 78 65 45 0 -11 -4 -20 -10 -20 -11 0 -44 -59 -37 -66 2
-3 12 7 21 21 10 15 25 34 34 44 23 23 82 108 82 116 0 4 16 30 35 56 19 27
35 53 35 58 0 9 41 60 49 61 2 0 1 -26 -3 -57z m-2741 35 c14 -6 25 -17 25
-24 0 -7 8 -19 18 -26 56 -40 67 -118 17 -118 -29 0 -30 -6 -9 -49 9 -18 17
-43 18 -56 1 -23 2 -23 36 -8 19 8 40 15 45 16 35 1 45 -5 45 -28 0 -14 11
-43 25 -65 14 -22 21 -40 16 -40 -9 0 -44 40 -55 63 -5 9 -7 9 -12 0 -3 -7
-14 -13 -25 -13 -15 0 -19 -7 -19 -31 0 -38 -25 -35 -25 4 -1 28 -30 67 -50
67 -11 0 -29 34 -60 111 -10 26 -45 76 -78 110 -14 16 -15 24 -7 40 9 15 8 24
-1 35 -9 11 -8 14 6 14 10 0 15 -3 12 -7 -7 -7 21 -43 33 -43 4 0 8 6 7 13 -1
23 3 47 8 47 2 0 16 -5 30 -12z m280 -106 c-7 -7 -55 39 -55 52 0 5 13 -3 30
-19 16 -16 28 -31 25 -33z m-515 -7 c0 -7 16 -37 36 -66 20 -30 40 -63 45 -74
5 -11 13 -27 18 -35 106 -173 175 -304 169 -322 -2 -5 -15 7 -29 27 l-26 36
-7 -32 -6 -31 -21 23 c-20 23 -20 23 -9 2 10 -22 9 -22 -14 -12 -14 7 -32 9
-41 5 -13 -5 -14 -10 -4 -27 8 -15 8 -19 0 -15 -12 8 -43 63 -39 70 2 2 -5 12
-14 23 -9 10 -42 68 -72 128 -31 61 -67 129 -81 153 -26 45 -24 53 8 25 16
-15 15 -9 -6 28 -15 25 -27 53 -27 62 0 19 30 23 31 5 0 -9 2 -8 6 1 11 28 57
60 71 49 6 -6 12 -16 12 -23z m-376 -32 c5 -12 9 -14 18 -5 21 21 45 13 62
-22 9 -19 16 -40 16 -48 0 -7 7 -23 15 -34 8 -12 11 -24 8 -28 -3 -3 0 -6 7
-6 7 0 10 -3 7 -6 -3 -4 -2 -15 4 -25 9 -18 2 -24 -24 -20 -5 1 -6 -3 -2 -9 3
-5 15 -10 25 -10 18 0 38 -36 26 -47 -3 -3 0 -11 7 -18 37 -39 45 -53 35 -63
-14 -14 -1 -45 16 -39 17 7 36 -33 36 -73 0 -16 5 -32 10 -35 6 -3 10 -17 10
-31 0 -33 -16 -22 -35 22 -13 32 -16 33 -39 22 -14 -6 -28 -20 -32 -30 -10
-31 -19 -13 -67 132 -6 19 -15 38 -20 41 -5 4 -10 19 -10 35 -1 16 -5 31 -9
34 -3 3 -10 18 -14 34 -5 21 -4 27 5 22 6 -4 11 -13 11 -21 0 -7 9 -17 20 -20
11 -3 20 -11 20 -16 0 -5 5 -9 10 -9 19 0 10 24 -22 57 -18 18 -37 33 -42 33
-18 1 -45 46 -72 116 -21 56 -22 65 -8 60 12 -4 15 -2 10 9 -3 8 -1 15 3 15 5
0 12 -8 15 -17z m-254 -13 c0 -5 16 -43 36 -86 48 -103 96 -226 91 -231 -2 -2
-21 -4 -41 -5 -46 -2 -53 8 -106 137 -54 130 -56 137 -39 133 10 -2 14 7 13
33 0 32 2 35 23 31 13 -2 23 -8 23 -12z m1284 -15 c4 -21 12 -34 19 -33 19 4
17 -14 -3 -40 -12 -14 -21 -19 -25 -12 -4 6 -1 17 5 25 9 11 9 18 -4 30 -17
17 -22 65 -7 65 5 0 12 -16 15 -35z m-287 -17 c3 -16 10 -31 14 -34 5 -3 9
-10 9 -16 0 -6 -8 -4 -18 5 -10 10 -23 17 -29 17 -10 0 -24 45 -17 53 14 13
36 0 41 -25z m444 -119 c23 -71 21 -83 -6 -34 -10 20 -26 35 -36 35 -26 0 -35
21 -15 35 12 9 15 21 10 41 l-6 29 16 -22 c10 -13 26 -50 37 -84z m1687 47 c5
-24 -14 -19 -32 9 -16 24 -15 24 6 16 13 -5 24 -16 26 -25z m96 -17 c-3 -5 -9
-9 -13 -9 -11 0 -21 37 -13 45 9 8 33 -26 26 -36z m-54 -37 c-25 -4 -35 2 -26
17 5 7 13 7 27 -2 20 -12 20 -12 -1 -15z m-2262 -38 c-4 -3 -12 5 -18 18 -12
22 -12 22 6 6 10 -10 15 -20 12 -24z m2223 19 c13 -16 12 -17 -3 -4 -10 7 -18
15 -18 17 0 8 8 3 21 -13z m-1781 -30 c0 -13 -3 -13 -15 -3 -8 7 -12 16 -9 21
8 13 24 1 24 -18z m6298 -4891 c12 -28 30 -221 19 -212 -3 3 -11 32 -16 65
-12 66 -26 128 -36 163 -11 33 17 19 33 -16z m9 -289 c-3 -10 -5 -2 -5 17 0
19 2 27 5 18 2 -10 2 -26 0 -35z m1820 -749 c-3 -3 -12 -4 -19 -1 -8 3 -5 6 6
6 11 1 17 -2 13 -5z m-104 -21 c-7 -2 -21 -2 -30 0 -10 3 -4 5 12 5 17 0 24
-2 18 -5z m205 0 c-10 -2 -26 -2 -35 0 -10 3 -2 5 17 5 19 0 27 -2 18 -5z
m-418 -119 c0 -8 -4 -20 -10 -27 -61 -75 -77 -107 -91 -182 -11 -55 -13 -75
-10 -119 1 -26 3 -28 31 -22 l30 6 0 -61 c0 -48 3 -59 13 -51 16 14 34 0 76
-59 18 -26 43 -51 55 -57 12 -5 30 -29 39 -52 l16 -42 -24 6 c-25 6 -35 -7
-15 -19 6 -4 8 -11 5 -16 -4 -5 1 -12 9 -15 16 -6 23 -64 10 -77 -8 -8 -67 20
-122 56 -24 16 -49 30 -55 31 -23 4 -57 27 -57 38 0 6 11 1 25 -12 14 -13 25
-20 25 -16 0 3 -16 21 -37 39 -47 41 -111 175 -72 151 8 -5 9 6 4 35 -12 71
-10 280 3 293 7 7 12 20 12 30 0 28 80 149 104 158 25 9 36 4 36 -16z m-2885
-1724 c3 -5 -3 -10 -14 -10 -12 0 -21 5 -21 10 0 6 6 10 14 10 8 0 18 -4 21
-10z m-50 -20 c-3 -5 -15 -10 -26 -10 -10 0 -19 5 -19 10 0 6 12 10 26 10 14
0 23 -4 19 -10z m-71 -19 c3 -4 3 -11 0 -14 -8 -7 -44 4 -44 14 0 12 37 12 44
0z m-64 -31 c-24 -15 -37 -11 -16 5 11 8 22 12 25 9 3 -3 -1 -9 -9 -14z m-285
-232 c-3 -33 -7 -64 -9 -67 -2 -3 -6 -26 -7 -51 -3 -34 -11 -52 -32 -73 -26
-26 -28 -33 -25 -91 3 -54 1 -62 -15 -64 -10 0 -27 7 -38 16 -16 14 -19 30
-19 113 0 86 3 100 25 133 14 20 25 38 25 40 0 5 94 106 98 106 1 0 0 -28 -3
-62z"/>
<path d="M4126 26241 c-14 -5 -16 -10 -8 -15 17 -10 15 -26 -3 -26 -10 0 -15
-10 -15 -29 0 -35 -15 -48 -36 -30 -22 18 -26 6 -7 -22 21 -29 18 -67 -7 -94
-10 -11 -20 -29 -22 -40 -2 -12 -11 -20 -22 -20 -11 0 -21 -5 -23 -11 -5 -14
25 -27 39 -18 6 4 21 -6 34 -22 22 -27 25 -28 38 -11 7 9 21 17 30 17 24 0 40
48 26 79 -8 18 -8 26 1 32 7 4 9 14 6 23 -6 14 1 35 21 66 2 2 7 -2 13 -10 7
-11 8 -8 3 11 -3 15 -1 30 5 33 16 10 13 48 -5 74 -16 23 -35 26 -68 13z"/>
<path d="M3975 25999 c-10 -15 3 -25 16 -12 7 7 7 13 1 17 -6 3 -14 1 -17 -5z"/>
<path d="M3313 23853 c9 -2 25 -2 35 0 9 3 1 5 -18 5 -19 0 -27 -2 -17 -5z"/>
<path d="M6415 16308 c-223 -50 -305 -73 -305 -85 0 -17 24 -44 35 -39 8 3 17
-3 20 -15 4 -11 16 -28 27 -39 12 -11 22 -36 25 -64 6 -50 18 -56 79 -37 16 5
81 21 144 36 122 28 190 52 190 67 0 6 -16 43 -35 84 -19 40 -35 79 -35 86 -1
34 -16 34 -145 6z"/>
<path d="M8990 16090 c-13 -8 -13 -10 2 -10 9 0 20 5 23 10 8 13 -5 13 -25 0z"/>
<path d="M8030 15650 c0 -5 5 -10 10 -10 6 0 10 5 10 10 0 6 -4 10 -10 10 -5
0 -10 -4 -10 -10z"/>
<path d="M9526 15703 c-11 -11 -6 -23 9 -23 8 0 15 4 15 9 0 13 -16 22 -24 14z"/>
<path d="M12625 14230 c3 -5 8 -10 11 -10 2 0 4 5 4 10 0 6 -5 10 -11 10 -5 0
-7 -4 -4 -10z"/>
<path d="M13130 14192 c0 -5 9 -17 20 -27 22 -20 26 -14 10 16 -11 19 -30 26
-30 11z"/>
<path d="M13020 14130 c-122 -70 -140 -79 -140 -75 0 3 27 23 61 46 73 49 71
66 -3 19 -29 -18 -72 -45 -95 -59 -24 -14 -43 -32 -43 -39 0 -10 5 -10 20 -2
16 9 18 8 14 -5 -4 -8 -10 -15 -15 -15 -18 0 -8 -41 14 -63 26 -25 84 -124 89
-153 3 -19 33 -54 46 -54 4 0 41 28 82 63 42 34 99 78 128 97 61 42 70 61 44
98 -11 15 -39 64 -62 110 -23 45 -45 82 -49 81 -3 0 -44 -22 -91 -49z"/>
<path d="M13170 14131 c0 -5 5 -13 10 -16 6 -3 10 -2 10 4 0 5 -4 13 -10 16
-5 3 -10 2 -10 -4z"/>
<path d="M13594 13999 c-19 -22 -19 -22 3 -10 24 12 39 31 25 31 -5 0 -17 -10
-28 -21z"/>
<path d="M13535 13960 c-3 -5 -2 -10 4 -10 5 0 13 5 16 10 3 6 2 10 -4 10 -5
0 -13 -4 -16 -10z"/>
<path d="M12696 13828 c13 -42 54 -108 67 -108 8 0 -13 45 -42 93 -26 42 -36
48 -25 15z"/>
<path d="M13285 13750 c-3 -5 1 -10 9 -10 8 0 18 5 21 10 3 6 -1 10 -9 10 -8
0 -18 -4 -21 -10z"/>
<path d="M13495 13680 c3 -5 8 -10 11 -10 2 0 4 5 4 10 0 6 -5 10 -11 10 -5 0
-7 -4 -4 -10z"/>
<path d="M12985 13340 c3 -5 8 -10 11 -10 2 0 4 5 4 10 0 6 -5 10 -11 10 -5 0
-7 -4 -4 -10z"/>
<path d="M13876 13865 c-24 -37 -20 -45 24 -45 45 0 58 16 40 49 -15 28 -44
26 -64 -4z"/>
<path d="M7277 12985 c-10 -9 -18 -11 -22 -5 -11 19 -27 -2 -20 -27 5 -20 1
-26 -17 -31 -22 -5 -22 -6 7 -18 l30 -13 -27 -2 c-34 -2 -35 -2 -79 -17 -23
-8 -46 -28 -67 -57 -35 -49 -35 -50 -33 -122 l1 -53 43 0 c29 0 54 8 80 26 45
30 56 27 27 -6 -28 -33 -17 -37 25 -9 23 16 44 44 61 84 27 60 29 85 20 232
-2 30 -11 36 -29 18z m13 -34 c0 -12 -28 -22 -34 -12 -3 5 -3 11 1 15 9 9 33
7 33 -3z m-50 -241 c0 -5 -5 -10 -11 -10 -5 0 -7 5 -4 10 3 6 8 10 11 10 2 0
4 -4 4 -10z"/>
<path d="M6978 12883 c7 -3 16 -2 19 1 4 3 -2 6 -13 5 -11 0 -14 -3 -6 -6z"/>
<path d="M7000 12725 c0 -15 4 -24 10 -20 6 3 10 12 10 20 0 8 -4 17 -10 20
-6 4 -10 -5 -10 -20z"/>
<path d="M7378 12638 c-7 -18 2 -39 13 -32 12 7 12 44 0 44 -5 0 -11 -6 -13
-12z"/>
<path d="M7068 12593 c6 -2 18 -2 25 0 6 3 1 5 -13 5 -14 0 -19 -2 -12 -5z"/>
<path d="M7048 12383 c7 -3 16 -2 19 1 4 3 -2 6 -13 5 -11 0 -14 -3 -6 -6z"/>
<path d="M5020 11350 c0 -5 5 -10 11 -10 5 0 7 5 4 10 -3 6 -8 10 -11 10 -2 0
-4 -4 -4 -10z"/>
<path d="M5184 11249 c-9 -16 6 -29 34 -29 15 0 36 -7 46 -15 25 -19 36 -19
36 0 0 8 -4 15 -9 15 -5 0 -17 8 -27 17 -19 19 -71 26 -80 12z"/>
<path d="M11557 10039 c-6 -23 18 -38 35 -21 8 8 8 15 -2 27 -17 20 -27 19
-33 -6z"/>
<path d="M11266 9907 c3 -10 9 -15 12 -12 3 3 0 11 -7 18 -10 9 -11 8 -5 -6z"/>
<path d="M11322 9800 c7 -10 14 -18 15 -16 6 6 -9 36 -18 36 -5 0 -4 -9 3 -20z"/>
<path d="M11111 9684 c0 -11 3 -14 6 -6 3 7 2 16 -1 19 -3 4 -6 -2 -5 -13z"/>
<path d="M19820 3225 c0 -12 32 -67 36 -62 7 6 -13 54 -25 62 -6 3 -11 3 -11
0z"/>
<path d="M19717 3199 c4 -13 8 -18 11 -10 2 7 -1 18 -6 23 -8 8 -9 4 -5 -13z"/>
</g>
</svg>
