<svg width="48" height="48" viewBox="0 0 48 48" fill="none" xmlns="http://www.w3.org/2000/svg">
<path d="M35.2001 11.2001H38.4001M14.4001 1.6001H33.6001C36.9949 1.6001 40.2506 2.94867 42.6511 5.34913C45.0515 7.7496 46.4001 11.0053 46.4001 14.4001V33.6001C46.4001 36.9949 45.0515 40.2506 42.6511 42.6511C40.2506 45.0515 36.9949 46.4001 33.6001 46.4001H14.4001C11.0053 46.4001 7.7496 45.0515 5.34913 42.6511C2.94867 40.2506 1.6001 36.9949 1.6001 33.6001V14.4001C1.6001 11.0053 2.94867 7.7496 5.34913 5.34913C7.7496 2.94867 11.0053 1.6001 14.4001 1.6001ZM24.0001 33.6001C21.454 33.6001 19.0122 32.5887 17.2119 30.7883C15.4115 28.988 14.4001 26.5462 14.4001 24.0001C14.4001 21.454 15.4115 19.0122 17.2119 17.2119C19.0122 15.4115 21.454 14.4001 24.0001 14.4001C26.5462 14.4001 28.988 15.4115 30.7883 17.2119C32.5887 19.0122 33.6001 21.454 33.6001 24.0001C33.6001 26.5462 32.5887 28.988 30.7883 30.7883C28.988 32.5887 26.5462 33.6001 24.0001 33.6001Z" stroke="#FEFEFF" stroke-width="2"/>
</svg>
